 <svg
            width="38"
            height="38"
            viewBox="0 0 38 38"
            fill="none"
            xmlns="http://www.w3.org/2000/svg"
          >
            <path
              d="M0.5 8C0.5 3.58172 4.08172 0 8.5 0H30.5C34.9183 0 38.5 3.58172 38.5 8V30C38.5 34.4183 34.9183 38 30.5 38H8.5C4.08172 38 0.5 34.4183 0.5 30V8Z"
              fill="transparent"
            ></path>
            <path
              d="M1 8C1 3.85786 4.35786 0.5 8.5 0.5H30.5C34.6421 0.5 38 3.85786 38 8V30C38 34.1421 34.6421 37.5 30.5 37.5H8.5C4.35786 37.5 1 34.1421 1 30V8Z"
              stroke="white"
              stroke-opacity="0.04"
            ></path>
            <path
              fill-rule="evenodd"
              clip-rule="evenodd"
              d="M12.7835 12.2812C12.3929 12.6717 12.393 13.3049 12.7835 13.6954L18.0856 18.9976L12.7826 24.3006C12.3921 24.6911 12.3921 25.3243 12.7826 25.7148C13.1732 26.1053 13.8063 26.1053 14.1969 25.7148L19.4999 20.4118L24.8034 25.7154C25.194 26.1059 25.8271 26.1059 26.2177 25.7154C26.6082 25.3248 26.6082 24.6917 26.2177 24.3011L20.9141 18.9976L26.2141 13.6975C26.6047 13.307 26.6047 12.6738 26.2141 12.2833C25.8236 11.8928 25.1904 11.8928 24.7999 12.2833L19.4999 17.5833L14.1977 12.2812C13.8072 11.8907 13.174 11.8907 12.7835 12.2812Z"
              fill="white"
              fill-opacity="0.9"
            ></path>
          </svg>